<?xml version="1.0" encoding="UTF-8"?><svg id="uuid-c55f053f-7b9c-47c1-81ed-68609b6f6d58" xmlns="http://www.w3.org/2000/svg" xmlns:xlink="http://www.w3.org/1999/xlink" viewBox="0 0 1418.07011 281.31048"><defs><linearGradient id="uuid-1ac855b7-60fa-4cc6-8675-adbe0853adb6" x1="120.38408" y1="8.15122" x2="265.33734" y2="136.03574" gradientUnits="userSpaceOnUse"><stop offset="0" stop-color="#f3f3f1"/><stop offset=".45552" stop-color="#c2c3c5"/><stop offset="1" stop-color="#657381"/></linearGradient><linearGradient id="uuid-c020c8af-b72e-43a8-9080-8b1b929ae243" x1="34.788" y1="171.00497" x2="207.29612" y2="71.40735" gradientUnits="userSpaceOnUse"><stop offset="0" stop-color="#f2f2f2"/><stop offset=".47818" stop-color="#83b7da"/><stop offset=".52034" stop-color="#64a6d3"/><stop offset=".58818" stop-color="#3990c9"/><stop offset=".64924" stop-color="#197fc2"/><stop offset=".70076" stop-color="#0675be"/><stop offset=".7365" stop-color="#0072bd"/><stop offset="1" stop-color="#2bc1e8"/></linearGradient><linearGradient id="uuid-85e205a8-3c59-45bd-acdb-07143577d642" x1="46.56022" y1="178.63291" x2="231.03472" y2="178.63291" gradientUnits="userSpaceOnUse"><stop offset="0" stop-color="#43c6e6"/><stop offset="1" stop-color="#0e4a94"/></linearGradient></defs><g id="uuid-9c8d39ad-d50a-4b6f-9e81-f18984c90a6e"><path d="M51.84728,14.85598S109.31032,0,123.65116,0s121.49959,29.37125,121.49872,29.41062c-1.2426,56.83226-3.27667,80.39071-6.58804,89.47746-1.92978,5.29553-27.10143,50.64458-33.31698,52.76821-.20676.07064-.40157-.12098-.32009-.32372,6.60913-16.44601,15.833-78.32849,13.12373-123.36015-2.05793-2.12806-71.53653-23.1236-94.70684-25.68846-6.50357,0-48.28192,10.21348-48.28192,10.21348l-23.21246-17.64147" fill="url(#uuid-1ac855b7-60fa-4cc6-8675-adbe0853adb6)"/><path d="M175.97228,47.67203l29.41258,8.21432s-.79493,102.81153-16.16367,126.92454c0,0-159.1402-128.97236-161.37171-130.36926.00224.0644-2.41449,47.85791,9.56442,100.09379,8.16151,35.58952,38.72481,87.29208,94.43655,124.25275,0,0-8.52131,4.46592-8.58492,4.52231C54.08226,249.67311-1.37087,186.93418.02582,29.25269l34.73159-9.54295,140.95335,114.42133.26153-86.45903Z" fill="url(#uuid-c020c8af-b72e-43a8-9080-8b1b929ae243)"/><path d="M46.56022,86.4384c1.7821,1.43676,28.4489,23.86037,28.4489,23.86037,0,0-13.63266,91.19935,61.61135,139.04947,8.79299-.21867,73.49615-56.93812,94.34003-95.98726.01673-.03135.06501-.0279.06765.00754.38834,5.22063-16.28096,73.73239-88.19002,117.45891C38.80318,210.6281,47.31228,118.21215,46.56022,86.4384Z" fill="url(#uuid-85e205a8-3c59-45bd-acdb-07143577d642)"/><path d="M324.15881,137.63596V21.02371c0-2.31322,1.87524-4.18846,4.18846-4.18846h17.57683c1.44741,0,2.79224.7473,3.55667,1.97639l46.45567,74.69362c2.22498,3.57743,7.74513,2.00084,7.74513-2.21207V21.02371c0-2.31322,1.87524-4.18846,4.18846-4.18846h13.72173c2.31322,0,4.18846,1.87524,4.18846,4.18846v116.61225c0,2.31322-1.87524,4.18846-4.18846,4.18846h-17.3983c-1.44523,0-2.78836-.74507-3.55343-1.97119l-46.63895-74.7445c-2.22852-3.57146-7.74189-1.99244-7.74189,2.21727v70.30997c0,2.31322-1.87524,4.18846-4.18846,4.18846h-13.72346c-2.31322,0-4.18846-1.87524-4.18846-4.18846Z" fill="#e6e6ec"/><path d="M479.21438,137.63596V21.02371c0-2.31322,1.87524-4.18846,4.18846-4.18846h75.67302c2.31322,0,4.18846,1.87524,4.18846,4.18846v11.73108c0,2.31322-1.87524,4.18846-4.18846,4.18846h-53.57265c-2.31322,0-4.18846,1.87524-4.18846,4.18846v21.69295c0,2.31322,1.87524,4.18846,4.18846,4.18846h48.13969c2.31322,0,4.18846,1.87524,4.18846,4.18846v11.72936c0,2.31322-1.87524,4.18846-4.18846,4.18846h-48.13969c-2.31322,0-4.18846,1.87524-4.18846,4.18846v26.22186c0,2.31322,1.87524,4.18846,4.18846,4.18846h53.57265c2.31322,0,4.18846,1.87524,4.18846,4.18846v11.72936c0,2.31322-1.87524,4.18846-4.18846,4.18846h-75.67302c-2.31322,0-4.18846-1.87524-4.18846-4.18846Z" fill="#e6e6ec"/><path d="M601.54196,135.31076l36.97761-55.46642c.93856-1.40784.93788-3.24212-.00173-4.64926l-34.61927-51.84544c-.82179-1.23071-.93315-2.80373-.29293-4.13793h0c.69696-1.45246,2.16519-2.37645,3.77621-2.37645h14.47653c1.41637,0,2.7368.71582,3.50976,1.90268l23.33984,35.83785c1.6493,2.53246,5.35605,2.53791,7.01278.01031l23.50365-35.85846c.77405-1.18093,2.09102-1.89238,3.50302-1.89238h14.48367c1.61055,0,3.07845.92346,3.77565,2.37528l.00034.00072c.64083,1.33442.52967,2.90801-.29237,4.1391l-34.6188,51.84473c-.93961,1.40714-.94029,3.24142-.00173,4.64926l36.97761,55.46642c.82026,1.23039.93094,2.80214.29121,4.13534l-.00089.00186c-.69696,1.45246-2.16519,2.37645-3.77621,2.37645h-14.48365c-1.41247,0-2.7298-.71191-3.50374-1.89347l-25.85803-39.47724c-1.65631-2.52868-5.36412-2.5237-7.01363.00942l-25.69448,39.4584c-.77294,1.18698-2.09343,1.90289-3.50989,1.90289h-14.47465c-1.61102,0-3.07925-.92399-3.77621-2.37645l-.00089-.00186c-.63974-1.33321-.52906-2.90495.29121-4.13534Z" fill="#e6e6ec"/><path d="M745.85494,108.10854v-57.5574c0-18.62077,15.09511-33.71588,33.71588-33.71588h47.4459c.93315,0,1.83959.31162,2.57548.88542l7.93832,6.18974c1.01788.79367,1.61298,2.01231,1.61298,3.30304v5.54134c0,2.31322-1.87524,4.18846-4.18846,4.18846h-59.03023c-5.31414,0-7.96949,2.59852-7.96949,7.78868v69.19581c0,5.1936,2.65535,7.7904,7.96949,7.7904h40.55471c2.31322,0,4.18846-1.87524,4.18846-4.18846v-26.22186c0-2.31322-1.87524-4.18846-4.18846-4.18846h-18.06983c-2.31322,0-4.18846-1.87524-4.18846-4.18846v-11.72936c0-2.31322,1.87524-4.18846,4.18846-4.18846h40.16847c2.31322,0,4.18846,1.87524,4.18846,4.18846v66.4344c0,2.31322-1.87524,4.18846-4.18846,4.18846h-59.00734c-18.62077,0-33.71588-15.09511-33.71588-33.71588Z" fill="#e6e6ec"/><path d="M891.49281,108.11026V21.02371c0-2.31322,1.87524-4.18846,4.18846-4.18846h13.72346c2.31322,0,4.18846,1.87524,4.18846,4.18846v92.90403c0,5.1936,2.65363,7.7904,7.96949,7.7904h36.77195c5.31242,0,7.97122-2.5968,7.97122-7.7904V21.02371c0-2.31322,1.87524-4.18846,4.18846-4.18846h13.72173c2.31322,0,4.18846,1.87524,4.18846,4.18846v87.08655c0,18.61982-15.09434,33.71416-33.71416,33.71416h-29.48336c-18.61982,0-33.71416-15.09434-33.71416-33.71416Z" fill="#e6e6ec"/><path d="M1029.41215,135.55549l37.03769-115.80767c.55492-1.7351,2.16771-2.91256,3.98939-2.91256h28.29607c1.82378,0,3.43793,1.18013,3.99113,2.91799l36.88599,115.87635c.37291,1.17149.2123,2.44765-.43924,3.49021l-.4599.7359c-.76538,1.2247-2.10769,1.9687-3.55188,1.9687h-13.24752c-1.8366,0-3.45897-1.1965-4.00152-2.95113l-6.6886-21.63106c-.54256-1.75464-2.16492-2.95113-4.00152-2.95113h-45.46738c-1.82735,0-3.44379,1.18468-3.99405,2.92722l-6.84575,21.6789c-.55026,1.74254-2.1667,2.92722-3.99405,2.92722h-12.98317c-1.40056,0-2.70843-.70003-3.48522-1.86544l-.53628-.80458c-.70683-1.06046-.8924-2.38504-.50418-3.59891ZM1070.54625,94.18309h28.06922c2.83202,0,4.84772-2.75211,3.99327-5.45215l-15.87002-50.14922c-.3087-.97549-1.2139-1.63848-2.23707-1.63848h0c-1.02566,0-1.93245.66616-2.23909,1.64491l-15.71319,50.15427c-.84517,2.69768,1.16991,5.44067,3.99689,5.44067Z" fill="#e6e6ec"/><path d="M1181.68022,137.63596V21.02371c0-2.31322,1.87524-4.18846,4.18846-4.18846h51.76281c18.61982,0,33.71416,15.09434,33.71416,33.71416v16.28116c0,13.34371-4.64346,22.08898-13.92808,26.23928-2.18569.97702-3.11127,3.5809-2.02248,5.71312l18.53871,36.30492c.64542,1.26394.6069,2.76873-.10235,3.998l-.37113.64325c-.74804,1.2965-2.13109,2.09528-3.62791,2.09528h-13.84949c-1.57694,0-3.02023-.88571-3.73436-2.29169l-20.85724-41.06384c-.71413-1.40598-2.15742-2.29169-3.73436-2.29169h-19.68792c-2.31322,0-4.18846,1.87524-4.18846,4.18846v37.27032c0,2.31322-1.87524,4.18846-4.18846,4.18846h-13.72346c-2.31322,0-4.18846-1.87524-4.18846-4.18846ZM1207.96905,76.0692h29.12001c6.71465,0,12.15795-5.4433,12.15795-12.15795v-19.17932c0-5.19016-2.65707-7.78868-7.96949-7.78868h-33.30847c-2.31322,0-4.18846,1.87524-4.18846,4.18846v30.74904c0,2.31322,1.87524,4.18846,4.18846,4.18846Z" fill="#e6e6ec"/><path d="M1321.15843,137.63596V21.02371c0-2.31322,1.87524-4.18846,4.18846-4.18846h43.81449c32.60639,0,48.90873,16.36605,48.90873,49.09126v26.80836c0,32.72693-16.30233,49.08954-48.90873,49.08954h-43.81449c-2.31322,0-4.18846-1.87524-4.18846-4.18846ZM1347.44726,121.71815h18.7948c16.4191,0,29.72941-13.31031,29.72941-29.72941v-25.31607c0-16.4191-13.31031-29.72941-29.72941-29.72941h-18.7948c-2.31322,0-4.18846,1.87524-4.18846,4.18846v76.39799c0,2.31322,1.87524,4.18846,4.18846,4.18846Z" fill="#e6e6ec"/><path d="M331.70605,245.9213v-61.25488h29.47363c9.64551,0,14.4707,4.82422,14.4707,14.46973v11.80762c0,9.58789-4.8252,14.38184-14.4707,14.38184h-18.64258v20.5957h-10.83105ZM342.5371,215.4711h18.37598c2.60352,0,3.90625-1.30078,3.90625-3.90625v-13.22754c0-2.54395-1.30273-3.81738-3.90625-3.81738h-18.37598v20.95117Z" fill="#24abe2"/><path d="M409.82812,245.9213v-61.25488h29.47363c9.64551,0,14.4707,4.82422,14.4707,14.46973v10.03223c0,7.45703-2.96094,11.98438-8.87793,13.58203l10.65332,20.8623-1.33203,2.30859h-9.23242l-11.36328-22.37109h-12.96094v22.37109h-10.83105ZM420.65917,213.69571h18.37598c2.60352,0,3.90625-1.30078,3.90625-3.90625v-11.45215c0-2.54395-1.30273-3.81738-3.90625-3.81738h-18.37598v19.17578Z" fill="#24abe2"/><path d="M487.94921,231.4506v-32.31445c0-9.64551,4.82324-14.46973,14.4707-14.46973h20.3291c9.64648,0,14.4707,4.82422,14.4707,14.46973v32.31445c0,9.64746-4.82422,14.4707-14.4707,14.4707h-20.3291c-9.64746,0-14.4707-4.82324-14.4707-14.4707ZM498.78027,232.24942c0,2.5459,1.30078,3.81738,3.90527,3.81738h19.79688c2.60449,0,3.90625-1.27148,3.90625-3.81738v-33.91211c0-2.54395-1.30176-3.81738-3.90625-3.81738h-19.79688c-2.60449,0-3.90527,1.27344-3.90527,3.81738v33.91211Z" fill="#24abe2"/><path d="M567.7578,194.51993v-9.85352h49.44727v9.85352h-19.26367v51.40137h-10.91992v-51.40137h-19.26367Z" fill="#24abe2"/><path d="M648.63183,245.9213v-61.25488h41.19141v9.85352h-30.36035v14.7373h27.69727v9.85352h-27.69727v16.95605h30.36035v9.85449h-41.19141Z" fill="#24abe2"/><path d="M722.67089,231.4506v-32.31445c0-9.64551,4.82324-14.46973,14.4707-14.46973h24.14648l5.23828,4.08301v5.77051h-29.11914c-2.60449,0-3.90527,1.27344-3.90527,3.81738v33.91211c0,2.5459,1.30078,3.81738,3.90527,3.81738h29.11914v5.77051l-5.23828,4.08398h-24.14648c-9.64746,0-14.4707-4.82324-14.4707-14.4707Z" fill="#24abe2"/><path d="M794.84472,194.51993v-9.85352h49.44727v9.85352h-19.26367v51.40137h-10.91992v-51.40137h-19.26367Z" fill="#24abe2"/><path d="M875.71777,245.9213v-61.25488h10.83105v61.25488h-10.83105Z" fill="#24abe2"/><path d="M922.50195,231.4506v-32.31445c0-9.64551,4.82324-14.46973,14.4707-14.46973h20.3291c9.64648,0,14.4707,4.82422,14.4707,14.46973v32.31445c0,9.64746-4.82422,14.4707-14.4707,14.4707h-20.3291c-9.64746,0-14.4707-4.82324-14.4707-14.4707ZM933.333,232.24942c0,2.5459,1.30078,3.81738,3.90527,3.81738h19.79688c2.60449,0,3.90625-1.27148,3.90625-3.81738v-33.91211c0-2.54395-1.30176-3.81738-3.90625-3.81738h-19.79688c-2.60449,0-3.90527,1.27344-3.90527,3.81738v33.91211Z" fill="#24abe2"/><path d="M1007.72558,245.9213v-61.25488h11.80762l27.16504,43.67773v-43.67773h10.83008v61.25488h-11.71777l-27.25391-43.67773v43.67773h-10.83105Z" fill="#24abe2"/></g></svg>